<?xml version="1.0" encoding="UTF-8" standalone="no"?>
<!-- Created with Inkscape (http://www.inkscape.org/) -->

<svg
   xmlns:dc="http://purl.org/dc/elements/1.1/"
   xmlns:cc="http://creativecommons.org/ns#"
   xmlns:rdf="http://www.w3.org/1999/02/22-rdf-syntax-ns#"
   xmlns:svg="http://www.w3.org/2000/svg"
   xmlns="http://www.w3.org/2000/svg"
   xmlns:sodipodi="http://sodipodi.sourceforge.net/DTD/sodipodi-0.dtd"
   xmlns:inkscape="http://www.inkscape.org/namespaces/inkscape"
   width="210mm"
   height="297mm"
   viewBox="0 0 744.09448819 1052.3622047"
   id="svg2"
   version="1.1"
   inkscape:version="0.91 r13725"
   sodipodi:docname="EnclosureFrontPanel-V1.svg">
  <defs
     id="defs4" />
  <sodipodi:namedview
     id="base"
     pagecolor="#ffffff"
     bordercolor="#666666"
     borderopacity="1.0"
     inkscape:pageopacity="0.0"
     inkscape:pageshadow="2"
     inkscape:zoom="3.7972806"
     inkscape:cx="138.45918"
     inkscape:cy="128.58727"
     inkscape:document-units="mm"
     inkscape:current-layer="g4227"
     showgrid="true"
     inkscape:window-width="2560"
     inkscape:window-height="1335"
     inkscape:window-x="2552"
     inkscape:window-y="1432"
     inkscape:window-maximized="1"
     showguides="false">
    <inkscape:grid
       type="xygrid"
       id="grid4141" />
  </sodipodi:namedview>
  <metadata
     id="metadata7">
    <rdf:RDF>
      <cc:Work
         rdf:about="">
        <dc:format>image/svg+xml</dc:format>
        <dc:type
           rdf:resource="http://purl.org/dc/dcmitype/StillImage" />
        <dc:title />
      </cc:Work>
    </rdf:RDF>
  </metadata>
  <g
     inkscape:label="Base"
     inkscape:groupmode="layer"
     id="layer1"
     style="display:none">
    <rect
       style="opacity:1;fill:#000000;fill-opacity:1;fill-rule:evenodd;stroke:#ff0000;stroke-width:0.354;stroke-linejoin:miter;stroke-miterlimit:4;stroke-dasharray:none;stroke-opacity:1"
       id="rect4136"
       width="256.28741"
       height="256.28741"
       x="0.177"
       y="795.89777"
       rx="14.1732"
       ry="14.1732" />
    <path
       style="fill:#ff0000;fill-rule:evenodd;stroke:#ff0000;stroke-width:0.17716534;stroke-linecap:butt;stroke-linejoin:miter;stroke-miterlimit:4;stroke-dasharray:none;stroke-opacity:1"
       d="m -28.947331,1044.4606 304.724461,0"
       id="path4143-6"
       inkscape:connector-curvature="0" />
  </g>
  <g
     inkscape:groupmode="layer"
     id="layer2"
     inkscape:label="Design1"
     style="display:inline">
    <text
       xml:space="preserve"
       style="font-style:normal;font-weight:normal;font-size:25px;line-height:125%;font-family:Sans;letter-spacing:0px;word-spacing:0px;fill:#000000;fill-opacity:1;stroke:none;stroke-width:1px;stroke-linecap:butt;stroke-linejoin:miter;stroke-opacity:1"
       x="13.46183"
       y="1037.3999"
       id="text4715"
       sodipodi:linespacing="125%"><tspan
         sodipodi:role="line"
         id="tspan4717"
         x="13.46183"
         y="1037.3999"
         style="font-style:normal;font-variant:normal;font-weight:bold;font-stretch:normal;font-size:30px;font-family:Aharoni;-inkscape-font-specification:'Aharoni Bold'">ThingySticks.com</tspan></text>
    <text
       xml:space="preserve"
       style="font-style:normal;font-weight:normal;font-size:25px;line-height:125%;font-family:Sans;letter-spacing:0px;word-spacing:0px;fill:#000000;fill-opacity:1;stroke:none;stroke-width:1px;stroke-linecap:butt;stroke-linejoin:miter;stroke-opacity:1"
       x="29.562937"
       y="822.62811"
       id="text4719"
       sodipodi:linespacing="125%"><tspan
         sodipodi:role="line"
         id="tspan4721"
         x="29.562937"
         y="822.62811">Environment</tspan></text>
    <text
       xml:space="preserve"
       style="font-style:normal;font-weight:normal;font-size:25px;line-height:125%;font-family:Sans;letter-spacing:0px;word-spacing:0px;fill:#000000;fill-opacity:1;stroke:none;stroke-width:1px;stroke-linecap:butt;stroke-linejoin:miter;stroke-opacity:1"
       x="29.831537"
       y="843.17828"
       id="text4723"
       sodipodi:linespacing="125%"><tspan
         sodipodi:role="line"
         id="tspan4725"
         x="29.831537"
         y="843.17828">Monitor</tspan></text>
    <g
       id="g4741"
       transform="matrix(1.5885752,0,0,1.5827411,140.51492,812.22196)">
      <path
         id="path4729"
         d="m 47.679147,91.310935 c -11.7,0 -21.2,-9.499996 -21.2,-21.199999 0,-6.3 2.7,-12.1 7.4,-16.1 l 0,-44.4999997 c 0,-7.6000001 6.2,-13.8000001 13.8,-13.8000001 7.6,0 13.8,6.2 13.8,13.8000001 l 0,44.4999997 c 4.7,4 7.4,9.8 7.4,16.1 0,11.600003 -9.5,21.199999 -21.2,21.199999 z m 0,-91.49999881 c -5.4,0 -9.7,4.40000001 -9.7,9.70000011 l 0,46.3999997 -0.8,0.6 c -4.2,3.3 -6.6,8.2 -6.6,13.6 0,9.500003 7.7,17.199999 17.2,17.199999 9.5,0 17.1,-7.799996 17.1,-17.199999 0,-5.3 -2.4,-10.3 -6.6,-13.6 l -0.8,-0.6 0,-46.3999997 c -0.1,-5.4000001 -4.4,-9.70000011 -9.8,-9.70000011 z m 14.3,70.29999981 c 0,-5.4 -3,-10.1 -7.4,-12.5 l 0,-48.0999997 c 0,-3.8000001 -3.1,-6.8000001 -6.8,-6.8000001 -3.7,0 -6.8,3.1 -6.8,6.8000001 l 0,5.5999997 5.4,0 c 0.9,0 1.7,0.8 1.7,1.7 0,0.9 -0.9,1.7 -1.8,1.7 l -5.4,0 0,4.5 5.4,0 c 0.9,0 1.7,0.8 1.7,1.7 0,0.9 -0.8,1.7 -1.7,1.7 l -5.4,0 0,4.5 5.4,0 c 0.9,0 1.7,0.8 1.7,1.7 0,0.9 -0.8,1.7 -1.7,1.7 l -5.4,0 0,4.5 5.4,0 c 0.9,0 1.7,0.8 1.7,1.7 0,0.9 -0.8,1.7 -1.7,1.7 l -5.4,0 0,4.5 5.4,0 c 0.9,0 1.7,0.8 1.7,1.7 0,0.9 -0.8,1.7 -1.7,1.7 l -5.4,0 0,7.4 c -4.4,2.4 -7.4,7.1 -7.4,12.5 0,7.900003 6.4,14.299999 14.3,14.299999 7.8,0 14.2,-6.399996 14.2,-14.199999 z"
         inkscape:connector-curvature="0" />
    </g>
    <text
       xml:space="preserve"
       style="font-style:normal;font-weight:normal;font-size:25px;line-height:125%;font-family:Sans;letter-spacing:0px;word-spacing:0px;fill:#000000;fill-opacity:1;stroke:none;stroke-width:1px;stroke-linecap:butt;stroke-linejoin:miter;stroke-opacity:1"
       x="32.411987"
       y="857.86237"
       id="text4746"
       sodipodi:linespacing="125%"><tspan
         sodipodi:role="line"
         id="tspan4748"
         x="32.411987"
         y="857.86237"
         style="font-style:normal;font-variant:normal;font-weight:normal;font-stretch:normal;font-size:12.5px;font-family:'Calisto MT';-inkscape-font-specification:'Calisto MT'">Temperature</tspan><tspan
         sodipodi:role="line"
         x="32.411987"
         y="873.48737"
         id="tspan4750"
         style="font-style:normal;font-variant:normal;font-weight:normal;font-stretch:normal;font-size:12.5px;font-family:'Calisto MT';-inkscape-font-specification:'Calisto MT'">Humidity</tspan><tspan
         sodipodi:role="line"
         x="32.411987"
         y="889.11237"
         id="tspan4752"
         style="font-style:normal;font-variant:normal;font-weight:normal;font-stretch:normal;font-size:12.5px;font-family:'Calisto MT';-inkscape-font-specification:'Calisto MT'">Pressure</tspan><tspan
         sodipodi:role="line"
         x="32.411987"
         y="904.73737"
         id="tspan4754"
         style="font-style:normal;font-variant:normal;font-weight:normal;font-stretch:normal;font-size:12.5px;font-family:'Calisto MT';-inkscape-font-specification:'Calisto MT'">Air Quality</tspan><tspan
         sodipodi:role="line"
         x="32.411987"
         y="920.36237"
         id="tspan4757"
         style="font-style:normal;font-variant:normal;font-weight:normal;font-stretch:normal;font-size:12.5px;font-family:'Calisto MT';-inkscape-font-specification:'Calisto MT'">Noise</tspan><tspan
         sodipodi:role="line"
         x="32.411987"
         y="935.98737"
         id="tspan4759"
         style="font-style:normal;font-variant:normal;font-weight:normal;font-stretch:normal;font-size:12.5px;font-family:'Calisto MT';-inkscape-font-specification:'Calisto MT'">Presence</tspan></text>
    <g
       id="g4227"
       transform="matrix(0.50491133,0,0,0.40011833,12.939624,963.55872)">
      <g
         id="g4213"
         transform="matrix(0.94784331,0,0,1,-1.0701752e-5,0)">
        <path
           id="path4215"
           d="m 56.355,68.989 c 0.017,0 -0.016,10e-4 0,0 l 0,0 z m 41.522,-39.668 -0.009,0.007 -0.009,0.006 -13.615,9.576 0,50.725 c 0,3.299 -2.897,6.086 -6.328,6.086 -1.984,0 -3.842,-0.932 -5.028,-2.432 -1.187,1.5 -3.044,2.432 -5.029,2.432 -3.43,0 -6.327,-2.789 -6.327,-6.09 L 61.522,64.35 c -0.318,2.445 -2.318,4.563 -5.166,4.64 -2.223,0.046 -5.313,-1.749 -5.396,-5.169 L 50.47,49.286 c -0.007,-0.319 -0.012,-0.499 1.791,-6.288 0,0 -4.175,3.111 -4.185,3.119 -2.074,1.505 -5.685,1.397 -7.58,-1.158 l -3.232,-3.946 0,48.557 c 0,3.334 -2.921,6.15 -6.377,6.15 -2.021,0 -3.902,-0.953 -5.095,-2.486 -1.193,1.534 -3.074,2.486 -5.095,2.486 -3.457,0 -6.377,-2.816 -6.377,-6.15 l 0,-26.31 C 13.034,63.572 9.466,63.732 7.979,60.18 L 0.41,45.479 C -0.285,43.74 -0.092,41.981 0.952,40.425 l 7.641,-9.53 c 2.581,-3.608 5.558,-5.363 10.391,-5.363 -2.275,-1.658 -4.765,-4.775 -4.765,-9.348 0,-6.38 5.191,-11.571 11.572,-11.571 6.38,0 11.572,5.191 11.572,11.571 0,4.48 -2.496,7.694 -4.766,9.348 4.734,0 7.755,1.675 10.393,5.363 l 2.727,3.4 c 7.237,-5.398 8.676,-6.475 8.989,-6.704 1.948,-1.458 4.954,-1.631 7.121,0.537 1.694,-0.531 5.355,-1.602 7.967,-1.695 -4.053,-1.802 -6.886,-5.869 -6.886,-10.583 0,-6.38 5.19,-11.571 11.571,-11.571 2.676,0 5.238,0.917 7.299,2.598 2.539,-1.607 5.571,-0.632 7.07,1.412 L 99.01,21.856 c 1.736,2.292 1.084,5.832 -1.133,7.465 z M 74.479,24.934 c 5.01,0 9.084,-4.075 9.084,-9.083 0,-5.008 -4.074,-9.083 -9.084,-9.083 -5.01,0 -9.084,4.075 -9.084,9.083 0,5.008 4.074,9.083 9.084,9.083 z m 3.925,1.805 4.048,0.598 4.828,-3.458 -2.331,-3.11 c -1.379,2.915 -4.037,5.063 -6.545,5.97 z m -5.516,4.68 1.796,-2.504 -3.592,0 1.796,2.504 z m 0,3.846 -2.48,17.308 2.479,2.889 2.481,-2.889 -2.48,-17.308 z M 25.791,25.268 c 5.009,0 9.084,-4.075 9.084,-9.083 0,-5.008 -4.075,-9.084 -9.084,-9.084 -5.009,0 -9.084,4.075 -9.084,9.083 0,5.008 4.075,9.084 9.084,9.084 z m 0.883,18.729 c 0,-0.304 0.156,-0.57 0.392,-0.726 l -0.742,-5.188 c -0.104,0.365 -0.542,0.784 -1.146,0.573 l -0.4,2.798 c 0.157,-0.226 0.417,-0.375 0.713,-0.375 0.48,0 0.87,0.389 0.87,0.869 0,0.481 -0.389,0.87 -0.87,0.87 -0.386,0 -0.709,-0.253 -0.823,-0.601 l -0.736,5.148 c 0.232,0.156 0.385,0.421 0.385,0.722 0,0.388 -0.256,0.713 -0.606,0.825 l -0.345,2.415 c 0.524,-0.082 0.952,0.381 0.952,0.861 0,0.271 -0.127,0.511 -0.322,0.671 l 0.771,0.897 c 0.156,-0.234 0.422,-0.39 0.725,-0.39 0.48,0 0.91,0.411 0.863,0.929 l 1.073,-1.25 c -0.425,-0.057 -0.753,-0.417 -0.753,-0.857 0,-0.48 0.388,-0.87 0.87,-0.87 0.307,0 0.576,0.161 0.73,0.402 l -0.404,-2.828 c -0.101,0.041 -0.211,0.064 -0.326,0.064 -0.481,0 -0.87,-0.389 -0.87,-0.87 0,-0.48 0.511,-0.932 0.958,-0.86 l -0.344,-2.403 c -0.356,-0.109 -0.615,-0.435 -0.615,-0.826 z m -1.258,-7.012 c 0.025,-0.002 0.475,-0.071 0.807,0.397 l -0.404,-2.827 c -0.018,0.007 -0.039,0.011 -0.058,0.018 l -0.345,2.412 z m 0.928,-7.164 0.981,-1.37 c -0.237,-0.062 -0.433,-0.22 -0.546,-0.432 l -2.568,0 c -0.036,0.067 -0.079,0.13 -0.13,0.185 l 0.692,0.966 c 0.156,-0.229 0.419,-0.38 0.718,-0.38 0.48,0.001 0.951,0.413 0.853,1.031 z m -12.025,11.342 -2.309,2.966 2.309,4.795 0,-7.761 z m 20.457,18.907 -2.325,0 c 0.036,0.096 0.058,0.197 0.058,0.305 0,0.479 -0.39,0.869 -0.87,0.869 -0.48,0 -0.87,-0.39 -0.87,-0.869 0,-0.107 0.022,-0.209 0.058,-0.305 l -2.472,0 c 0.036,0.096 0.058,0.197 0.058,0.305 0,0.479 -0.39,0.869 -0.869,0.869 -0.481,0 -0.87,-0.39 -0.87,-0.869 0,-0.107 0.022,-0.209 0.058,-0.305 l -2.472,0 c 0.035,0.096 0.058,0.197 0.058,0.305 0,0.479 -0.389,0.869 -0.87,0.869 -0.48,0 -0.87,-0.39 -0.87,-0.869 0,-0.107 0.022,-0.209 0.058,-0.305 l -2.47,0 c 0.036,0.096 0.058,0.197 0.058,0.305 0,0.479 -0.39,0.869 -0.87,0.869 -0.48,0 -0.869,-0.39 -0.869,-0.869 0,-0.107 0.022,-0.209 0.058,-0.305 l -1.736,0 0,1.643 c 0.141,-0.1 0.313,-0.159 0.499,-0.159 0.48,0 0.87,0.39 0.87,0.869 0,0.48 -0.39,0.87 -0.87,0.87 -0.186,0 -0.357,-0.061 -0.499,-0.16 l 0,2.676 c 0.141,-0.1 0.313,-0.159 0.499,-0.159 0.48,0 0.87,0.39 0.87,0.869 0,0.48 -0.39,0.87 -0.87,0.87 -0.186,0 -0.357,-0.061 -0.499,-0.159 l 0,2.67 c 0.141,-0.1 0.313,-0.159 0.499,-0.159 0.48,0 0.87,0.389 0.87,0.869 0,0.48 -0.39,0.869 -0.87,0.869 -0.186,0 -0.357,-0.059 -0.499,-0.158 l 0,2.663 c 0.141,-0.1 0.313,-0.159 0.499,-0.159 0.48,0 0.87,0.389 0.87,0.869 0,0.48 -0.39,0.87 -0.87,0.87 -0.186,0 -0.357,-0.06 -0.499,-0.159 l 0,2.675 c 0.141,-0.1 0.313,-0.159 0.499,-0.159 0.48,0 0.87,0.39 0.87,0.869 0,0.48 -0.39,0.87 -0.87,0.87 -0.186,0 -0.357,-0.06 -0.499,-0.159 l 0,2.67 c 0.141,-0.1 0.313,-0.159 0.499,-0.159 0.48,0 0.87,0.39 0.87,0.87 0,0.479 -0.39,0.869 -0.87,0.869 -0.186,0 -0.357,-0.06 -0.499,-0.159 l 0,2.675 c 0.141,-0.1 0.313,-0.158 0.499,-0.158 0.48,0 0.87,0.389 0.87,0.869 0,0.479 -0.39,0.869 -0.87,0.869 -0.186,0 -0.357,-0.06 -0.499,-0.159 l 0,1.884 c 0,0.256 0.03,0.506 0.086,0.748 0.123,-0.067 0.263,-0.109 0.413,-0.109 0.48,0 0.87,0.39 0.87,0.869 0,0.344 -0.201,0.638 -0.49,0.779 0.267,0.309 0.586,0.576 0.943,0.793 0.155,-0.236 0.422,-0.394 0.726,-0.394 0.48,0 0.926,0.441 0.862,0.944 2.512,0.275 4.371,-1.645 4.371,-3.631 l 0,-26.54 0.284,0 c -0.154,-0.156 -0.25,-0.371 -0.25,-0.608 0,-0.479 0.39,-0.869 0.87,-0.869 0.48,0 0.87,0.39 0.87,0.869 0,0.237 -0.096,0.452 -0.25,0.608 l 0.885,0 0,0.77 c 0.15,-0.123 0.338,-0.199 0.548,-0.199 0.479,0 0.869,0.389 0.869,0.869 0,0.48 -0.39,0.87 -0.869,0.87 -0.209,0 -0.398,-0.077 -0.548,-0.199 l 0,2.755 c 0.15,-0.123 0.338,-0.199 0.548,-0.199 0.479,0 0.869,0.39 0.869,0.869 0,0.48 -0.39,0.87 -0.869,0.87 -0.209,0 -0.398,-0.077 -0.548,-0.199 l 0,2.75 c 0.15,-0.123 0.338,-0.199 0.548,-0.199 0.479,0 0.869,0.39 0.869,0.869 0,0.48 -0.39,0.87 -0.869,0.87 -0.209,0 -0.398,-0.077 -0.548,-0.199 l 0,2.743 c 0.15,-0.122 0.338,-0.199 0.548,-0.199 0.479,0 0.869,0.39 0.869,0.869 0,0.48 -0.39,0.87 -0.869,0.87 -0.209,0 -0.398,-0.076 -0.548,-0.199 l 0,2.755 c 0.15,-0.122 0.338,-0.198 0.548,-0.198 0.479,0 0.869,0.389 0.869,0.869 0,0.479 -0.39,0.869 -0.869,0.869 -0.209,0 -0.398,-0.076 -0.548,-0.199 l 0,2.75 c 0.15,-0.123 0.338,-0.199 0.548,-0.199 0.479,0 0.869,0.39 0.869,0.869 0,0.48 -0.39,0.87 -0.869,0.87 -0.209,0 -0.398,-0.077 -0.548,-0.199 l 0,2.762 c 0.15,-0.123 0.338,-0.199 0.548,-0.199 0.479,0 0.869,0.39 0.869,0.869 0,0.48 -0.39,0.87 -0.869,0.87 -0.206,0 -0.392,-0.074 -0.541,-0.193 0.079,1.892 1.764,3.467 3.776,3.521 -0.028,-0.564 0.379,-0.972 0.86,-0.972 0.401,0 0.735,0.272 0.836,0.642 0.52,-0.227 0.982,-0.559 1.354,-0.966 C 33.212,92 32.81,91.56 32.81,91.08 c 0,-0.479 0.39,-0.869 0.87,-0.869 0.402,0 0.736,0.274 0.836,0.645 0.166,-0.401 0.261,-0.834 0.261,-1.283 l 0,-29.503 z m 20.347,-22.308 4.615,-3.447 c 1.269,-0.951 1.552,-2.779 0.629,-4.075 -0.691,-1.031 -2.539,-1.843 -4.174,-0.658 L 45.278,37.724 40.992,32.378 C 38.907,29.445 36.369,28.02 33.236,28.02 l -3.721,0 -2.571,3.592 2.985,20.87 -4.138,4.818 -4.136,-4.818 2.985,-20.87 -2.572,-3.592 -3.721,0 c -3.134,0 -5.671,1.426 -7.756,4.358 l -0.027,0.035 -7.606,9.483 c -0.5,0.764 -0.603,1.72 -0.274,2.573 l 7.556,14.671 0.013,0.034 c 0.589,1.472 2.575,2.316 4.065,1.328 l 0,-5.556 -5.483,-11.17 7.971,-9.724 0,24.488 17.97,0 0,-24.488 7.7,9.402 c 0.983,1.354 2.994,1.481 4.131,0.656 l 8.516,-6.348 z m 26.78,22.308 -17.896,0 0.013,29.56 c 0,1.954 1.758,3.604 3.839,3.604 2.081,0 3.841,-1.65 3.841,-3.604 l 0,-26.192 2.377,0 0,26.193 c 0,1.953 1.76,3.604 3.84,3.604 2.082,0 3.841,-1.65 3.841,-3.604 L 81.903,60.07 Z M 97.496,24.324 c -0.105,0.047 -0.223,0.073 -0.347,0.073 -0.479,0 -0.869,-0.389 -0.869,-0.869 0,-0.286 0.14,-0.538 0.353,-0.696 l -0.745,-0.995 c -0.137,0.302 -0.438,0.513 -0.79,0.513 -0.48,0 -0.87,-0.39 -0.87,-0.87 0,-0.439 0.327,-0.799 0.751,-0.857 l -1.106,-1.477 c 0.032,0.092 0.054,0.189 0.054,0.292 0,0.48 -0.39,0.869 -0.869,0.869 -0.48,0 -0.869,-0.389 -0.869,-0.869 0,-0.48 0.389,-0.87 0.869,-0.87 0.189,0 0.363,0.062 0.506,0.166 L 86.85,9.77 C 85.572,8.022 83.508,8.603 82.771,9.232 c 1.521,1.902 2.086,3.75 2.263,5.257 0.401,0.077 0.704,0.429 0.704,0.853 0,0.402 -0.274,0.737 -0.646,0.837 -0.009,0.207 -0.022,0.401 -0.037,0.579 l 5.741,7.664 -7.125,5.103 c 0.008,0.045 0.014,0.09 0.014,0.137 0,0.48 -0.389,0.87 -0.869,0.87 -0.439,0 -0.799,-0.328 -0.857,-0.752 l -2.398,-0.354 c 0.021,0.075 0.037,0.154 0.037,0.236 0,0.48 -0.389,0.87 -0.869,0.87 -0.48,0 -0.869,-0.389 -0.869,-0.87 0,-0.172 0.051,-0.332 0.138,-0.467 l -1.472,-0.217 -2.494,3.476 0.086,0.599 c 0.145,-0.104 0.319,-0.168 0.511,-0.168 0.48,0 0.87,0.389 0.87,0.87 0,0.48 -0.39,0.87 -0.87,0.87 -0.103,0 -0.201,-0.021 -0.293,-0.054 l 0.347,2.417 c 0.455,0.028 0.816,0.402 0.816,0.864 0,0.377 -0.241,0.694 -0.576,0.815 l 1.25,8.724 c 0.143,-0.104 0.318,-0.167 0.508,-0.167 0.48,0 0.87,0.389 0.87,0.869 0,0.481 -0.39,0.87 -0.87,0.87 -0.103,0 -0.199,-0.021 -0.291,-0.054 l 0.594,4.139 -4.096,4.767 -4.09,-4.768 2.063,-14.389 c -0.102,0.041 -0.211,0.065 -0.327,0.065 -0.48,0 -0.869,-0.39 -0.869,-0.87 0,-0.479 0.389,-0.869 0.869,-0.869 0.205,0 0.392,0.074 0.54,0.192 l 0.676,-4.719 -2.512,-3.5 c -0.629,0.066 -1.318,0.183 -2.017,0.326 0.058,0.116 0.093,0.245 0.093,0.383 0,0.48 -0.39,0.87 -0.87,0.87 -0.479,0 -0.864,-0.371 -0.868,-0.875 0,0 -2.707,0.751 -3.341,0.954 0.229,0.742 0.259,1.526 0.103,2.273 0.003,0 0.006,-10e-4 0.01,-10e-4 0.48,0 0.87,0.389 0.87,0.87 0,0.48 -0.39,0.87 -0.87,0.87 -0.238,0 -0.455,-0.097 -0.612,-0.253 -0.206,0.326 -0.456,0.628 -0.749,0.897 0.115,0.147 0.188,0.332 0.188,0.534 0,0.48 -0.389,0.869 -0.869,0.869 -0.283,0 -0.533,-0.138 -0.692,-0.348 l -0.993,0.741 c 0.297,0.139 0.502,0.438 0.502,0.785 0,0.48 -0.389,0.87 -0.869,0.87 -0.436,0 -0.793,-0.322 -0.856,-0.741 l -1.242,0.928 c -0.015,0.047 -0.028,0.091 -0.044,0.138 0.517,-0.088 0.972,0.379 0.972,0.859 0,0.48 -0.39,0.869 -0.87,0.869 -0.221,0 -0.421,-0.085 -0.574,-0.222 -0.606,1.933 -1.077,3.444 -1.441,4.625 0.464,0.018 0.836,0.397 0.836,0.866 0,0.479 -0.389,0.869 -0.869,0.869 -0.169,0 -0.326,-0.05 -0.459,-0.134 -0.542,1.775 -0.7,2.349 -0.74,2.523 l 0.429,12.729 c 0.145,-0.28 0.433,-0.475 0.771,-0.475 0.48,0 0.869,0.39 0.869,0.869 0,0.48 -0.389,0.87 -0.869,0.87 -0.316,0 -0.59,-0.171 -0.742,-0.423 l 0.03,0.891 c 0.036,1.511 1.333,2.74 2.847,2.74 1.213,-0.028 2.829,-0.959 2.783,-2.874 l -0.029,-0.86 c -0.133,0.31 -0.44,0.526 -0.799,0.526 -0.48,0 -0.869,-0.39 -0.869,-0.87 0,-0.479 0.389,-0.869 0.869,-0.869 0.34,0 0.631,0.196 0.773,0.479 l -0.107,-3.154 c -0.159,0.192 -0.396,0.317 -0.666,0.317 -0.48,0 -0.869,-0.39 -0.869,-0.869 0,-0.48 0.389,-0.87 0.869,-0.87 0.247,0 0.469,0.104 0.627,0.27 l -0.096,-2.807 c -0.146,0.115 -0.33,0.186 -0.531,0.186 -0.48,0 -0.869,-0.389 -0.869,-0.869 0,-0.48 0.389,-0.869 0.869,-0.869 0.18,0 0.346,0.055 0.484,0.146 l -0.089,-2.603 c -0.119,0.062 -0.253,0.099 -0.396,0.099 -0.48,0 -0.869,-0.389 -0.869,-0.87 0,0 0,-0.001 0,-0.002 0,-10e-4 0,-10e-4 0,-0.002 0,-0.48 0.389,-0.869 0.869,-0.869 0.149,0 0.288,0.041 0.411,0.107 l 1.458,-4.527 c -0.392,-0.084 -0.686,-0.433 -0.686,-0.85 0,-0.48 0.389,-0.87 0.869,-0.87 0.123,0 0.24,0.027 0.348,0.073 l 1.182,-3.67 c 0,0 1.13,-0.229 1.76,0.699 -0.042,-0.102 -0.065,-0.212 -0.065,-0.328 0,-0.48 0.39,-0.87 0.87,-0.87 0.479,0 0.869,0.39 0.869,0.87 0,0.48 -0.39,0.869 -0.869,0.869 -0.281,0 -0.527,-0.135 -0.687,-0.34 0.191,0.375 0.312,0.898 0.291,1.627 L 64,43.226 c 0.119,-0.061 0.252,-0.099 0.395,-0.099 0.479,0 0.869,0.389 0.869,0.87 0,0.48 -0.39,0.87 -0.869,0.87 -0.143,0 -0.275,-0.038 -0.395,-0.098 l 0.002,2.547 c 0.117,-0.061 0.25,-0.098 0.393,-0.098 0.479,0 0.869,0.389 0.869,0.869 0,0.481 -0.39,0.87 -0.869,0.87 -0.143,0 -0.273,-0.037 -0.393,-0.097 l 0.002,2.556 c 0.117,-0.061 0.249,-0.098 0.391,-0.098 0.479,0 0.869,0.39 0.869,0.87 0,0.479 -0.39,0.869 -0.869,0.869 -0.142,0 -0.273,-0.036 -0.391,-0.097 l 10e-4,2.55 c 0.118,-0.06 0.249,-0.096 0.39,-0.096 0.479,0 0.869,0.389 0.869,0.869 0,0.48 -0.39,0.869 -0.869,0.869 -0.141,0 -0.271,-0.036 -0.389,-0.095 l 0,1.482 1.596,0 c -0.018,-0.068 -0.029,-0.14 -0.029,-0.214 0,-0.48 0.389,-0.87 0.868,-0.87 0.48,0 0.87,0.39 0.87,0.87 0,0.074 -0.013,0.146 -0.029,0.214 l 2.409,0 c -0.017,-0.068 -0.029,-0.14 -0.029,-0.214 0,-0.48 0.389,-0.87 0.869,-0.87 0.48,0 0.87,0.39 0.87,0.87 0,0.074 -0.013,0.146 -0.03,0.214 l 2.417,0 c -0.018,-0.068 -0.03,-0.14 -0.03,-0.214 0,-0.48 0.39,-0.87 0.869,-0.87 0.48,0 0.87,0.39 0.87,0.87 0,0.074 -0.013,0.146 -0.03,0.214 l 2.421,0 c -0.018,-0.068 -0.029,-0.14 -0.029,-0.214 0,-0.48 0.389,-0.87 0.869,-0.87 0.48,0 0.869,0.39 0.869,0.87 0,0.074 -0.012,0.146 -0.029,0.214 l 2.345,0 0,-20.915 2.144,-1.524 C 84.022,36.006 84,35.905 84,35.799 c 0,-0.48 0.389,-0.869 0.869,-0.869 0.21,0 0.399,0.077 0.55,0.201 l 0.97,-0.69 c -0.209,-0.159 -0.346,-0.407 -0.346,-0.689 0,-0.48 0.39,-0.87 0.869,-0.87 0.387,0 0.71,0.253 0.823,0.602 l 1.28,-0.911 c -0.018,10e-4 -0.035,0.005 -0.053,0.005 -0.48,0 -0.87,-0.39 -0.87,-0.87 0,-0.48 0.39,-0.869 0.87,-0.869 0.479,0 0.869,0.389 0.869,0.869 0,0.117 -0.024,0.229 -0.066,0.331 l 6.646,-4.726 c 0.696,-0.515 1.4,-1.743 1.085,-2.989 z M 25.491,45.17 c -0.48,0 -0.87,0.389 -0.87,0.87 0,0.479 0.39,0.869 0.87,0.869 0.48,0 0.87,-0.39 0.87,-0.869 -0.001,-0.48 -0.39,-0.87 -0.87,-0.87 z m 0,4.097 c -0.48,0 -0.87,0.389 -0.87,0.869 0,10e-4 0,0.002 0,0.002 0,0 0,0.001 0,0.002 0,0.48 0.39,0.87 0.87,0.87 0.48,0 0.87,-0.389 0.87,-0.87 0,0 0,-10e-4 0,-0.002 0,-10e-4 0,-10e-4 0,-0.002 -0.001,-0.481 -0.39,-0.869 -0.87,-0.869 z M 86.91,12.424 c -0.479,0 -0.869,0.39 -0.869,0.87 0,0.48 0.39,0.87 0.869,0.87 0.48,0 0.869,-0.389 0.869,-0.87 0,-0.481 -0.388,-0.87 -0.869,-0.87 z M 64.395,30.839 c -0.48,0 -0.87,0.389 -0.87,0.869 0,0.48 0.39,0.87 0.87,0.87 0.479,0 0.869,-0.39 0.869,-0.87 0,-0.48 -0.39,-0.869 -0.869,-0.869 z m 4.095,1.739 c 0.48,0 0.869,-0.39 0.869,-0.87 0,-0.48 -0.389,-0.869 -0.869,-0.869 -0.48,0 -0.869,0.389 -0.869,0.869 0,0.48 0.389,0.87 0.869,0.87 z m 18.42,-3.787 c -0.479,0 -0.869,0.389 -0.869,0.87 0,0.481 0.39,0.87 0.869,0.87 0.48,0 0.869,-0.389 0.869,-0.87 0,-0.481 -0.388,-0.87 -0.869,-0.87 z m -10.232,2.048 c -0.48,0 -0.868,0.389 -0.868,0.869 0,0.48 0.388,0.87 0.868,0.87 0.48,0 0.87,-0.39 0.87,-0.87 0,-0.48 -0.39,-0.869 -0.87,-0.869 z m 4.096,0 c -0.48,0 -0.87,0.389 -0.87,0.869 0,0.48 0.39,0.87 0.87,0.87 0.479,0 0.87,-0.39 0.87,-0.87 0,-0.48 -0.39,-0.869 -0.87,-0.869 z m 4.093,0 c -0.48,0 -0.869,0.389 -0.869,0.869 0,0.48 0.389,0.87 0.869,0.87 0.48,0 0.869,-0.39 0.869,-0.87 0,-0.48 -0.388,-0.869 -0.869,-0.869 z m 6.141,-6.144 c -0.479,0 -0.869,0.389 -0.869,0.87 0,0.479 0.39,0.87 0.869,0.87 0.48,0 0.87,-0.39 0.87,-0.87 0,-0.481 -0.39,-0.87 -0.87,-0.87 z m 4.09,0 c -0.48,0 -0.87,0.389 -0.87,0.87 0,0.479 0.39,0.87 0.87,0.87 0.479,0 0.869,-0.39 0.869,-0.87 0,-0.481 -0.391,-0.87 -0.869,-0.87 z m -4.09,4.096 c -0.479,0 -0.869,0.389 -0.869,0.87 0,0.481 0.39,0.87 0.869,0.87 0.48,0 0.87,-0.389 0.87,-0.87 0,-0.481 -0.39,-0.87 -0.87,-0.87 z m -2.047,-2.048 c -0.48,0 -0.87,0.389 -0.87,0.87 0,0.481 0.39,0.87 0.87,0.87 0.479,0 0.869,-0.389 0.869,-0.87 0,-0.481 -0.39,-0.87 -0.869,-0.87 z m 4.096,0 c -0.48,0 -0.869,0.389 -0.869,0.87 0,0.481 0.389,0.87 0.869,0.87 0.479,0 0.869,-0.389 0.869,-0.87 0,-0.481 -0.39,-0.87 -0.869,-0.87 z M 70.53,34.621 c 0.48,0 0.87,-0.39 0.87,-0.87 0,-0.48 -0.39,-0.87 -0.87,-0.87 -0.48,0 -0.869,0.389 -0.869,0.87 0,0.48 0.389,0.87 0.869,0.87 z m -6.135,0.309 c -0.48,0 -0.87,0.389 -0.87,0.869 0,0.48 0.39,0.869 0.87,0.869 0.479,0 0.869,-0.389 0.869,-0.869 0,-0.48 -0.39,-0.869 -0.869,-0.869 z m 4.095,1.738 c 0.48,0 0.869,-0.389 0.869,-0.869 0,-0.48 -0.389,-0.869 -0.869,-0.869 -0.48,0 -0.869,0.389 -0.869,0.869 0,0.48 0.389,0.869 0.869,0.869 z m 14.324,-3.787 c -0.48,0 -0.869,0.389 -0.869,0.87 0,0.48 0.389,0.87 0.869,0.87 0.48,0 0.869,-0.39 0.869,-0.87 10e-4,-0.48 -0.388,-0.87 -0.869,-0.87 z m -4.087,0 c -0.48,0 -0.869,0.389 -0.869,0.87 0,0.48 0.389,0.87 0.869,0.87 0.48,0 0.869,-0.39 0.869,-0.87 0,-0.48 -0.389,-0.87 -0.869,-0.87 z m -2.049,2.049 c -0.48,0 -0.868,0.389 -0.868,0.869 0,0.48 0.388,0.869 0.868,0.869 0.48,0 0.87,-0.389 0.87,-0.869 0,-0.48 -0.39,-0.869 -0.87,-0.869 z m 4.096,0 c -0.48,0 -0.87,0.389 -0.87,0.869 0,0.48 0.39,0.869 0.87,0.869 0.479,0 0.87,-0.389 0.87,-0.869 0,-0.48 -0.39,-0.869 -0.87,-0.869 z m -18.43,2.048 c -0.479,0 -0.869,0.39 -0.869,0.869 0,0.48 0.39,0.87 0.869,0.87 0.48,0 0.87,-0.39 0.87,-0.87 0,-0.48 -0.39,-0.869 -0.87,-0.869 z m 16.383,0 c -0.48,0 -0.869,0.39 -0.869,0.869 0,0.48 0.389,0.87 0.869,0.87 0.48,0 0.869,-0.39 0.869,-0.87 0,-0.48 -0.389,-0.869 -0.869,-0.869 z M 58.248,41.08 c -0.48,0 -0.869,0.389 -0.869,0.869 0,0.481 0.389,0.87 0.869,0.87 0.48,0 0.869,-0.389 0.869,-0.87 0,-0.48 -0.388,-0.869 -0.869,-0.869 z m -2.041,2.047 c -0.479,0 -0.869,0.389 -0.869,0.87 0,0.48 0.39,0.87 0.869,0.87 0.48,0 0.87,-0.39 0.87,-0.87 0,-0.48 -0.389,-0.87 -0.87,-0.87 z m 4.094,-4.096 c -0.48,0 -0.869,0.39 -0.869,0.87 0,0.48 0.389,0.869 0.869,0.869 0.48,0 0.869,-0.389 0.869,-0.869 0,-0.48 -0.389,-0.87 -0.869,-0.87 z m 8.189,1.74 c 0.48,0 0.869,-0.389 0.869,-0.869 0,-0.48 -0.389,-0.87 -0.869,-0.87 -0.48,0 -0.869,0.39 -0.869,0.87 0,0.48 0.389,0.869 0.869,0.869 z m 0,4.096 c 0.48,0 0.869,-0.39 0.869,-0.87 0,-0.48 -0.389,-0.87 -0.869,-0.87 -0.48,0 -0.869,0.389 -0.869,0.87 0,0.48 0.389,0.87 0.869,0.87 z M 78.727,41.08 c -0.48,0 -0.869,0.389 -0.869,0.869 0,0.481 0.389,0.87 0.869,0.87 0.48,0 0.869,-0.389 0.869,-0.87 0,-0.48 -0.389,-0.869 -0.869,-0.869 z m -2.049,-2.049 c -0.48,0 -0.868,0.39 -0.868,0.87 0,0.48 0.388,0.869 0.868,0.869 0.48,0 0.87,-0.389 0.87,-0.869 0,-0.48 -0.39,-0.87 -0.87,-0.87 z m 4.096,0 c -0.48,0 -0.87,0.39 -0.87,0.87 0,0.48 0.39,0.869 0.87,0.869 0.479,0 0.87,-0.389 0.87,-0.869 0,-0.48 -0.39,-0.87 -0.87,-0.87 z m -4.096,4.096 c -0.48,0 -0.868,0.389 -0.868,0.87 0,0.48 0.388,0.87 0.868,0.87 0.48,0 0.87,-0.39 0.87,-0.87 0,-0.48 -0.39,-0.87 -0.87,-0.87 z m 4.096,0 c -0.48,0 -0.87,0.389 -0.87,0.87 0,0.48 0.39,0.87 0.87,0.87 0.479,0 0.87,-0.39 0.87,-0.87 10e-4,-0.48 -0.39,-0.87 -0.87,-0.87 z M 58.248,45.17 c -0.48,0 -0.869,0.389 -0.869,0.87 0,0.479 0.389,0.869 0.869,0.869 0.48,0 0.869,-0.39 0.869,-0.869 0,-0.48 -0.388,-0.87 -0.869,-0.87 z m -2.041,2.048 c -0.479,0 -0.869,0.389 -0.869,0.869 0,0.481 0.39,0.87 0.869,0.87 0.48,0 0.87,-0.389 0.87,-0.87 0,-0.48 -0.389,-0.869 -0.87,-0.869 z m 12.283,1.739 c 0.48,0 0.869,-0.389 0.869,-0.87 0,-0.48 -0.389,-0.869 -0.869,-0.869 -0.48,0 -0.869,0.389 -0.869,0.869 0,0.481 0.389,0.87 0.869,0.87 z M 78.727,45.17 c -0.48,0 -0.869,0.39 -0.869,0.87 0,0 0,0 0,0 0,0.48 0.389,0.869 0.869,0.869 0.48,0 0.869,-0.389 0.869,-0.869 0,0 0,0 0,0 0,-0.48 -0.389,-0.87 -0.869,-0.87 z m 2.047,2.048 c -0.48,0 -0.87,0.389 -0.87,0.869 0,0.481 0.39,0.87 0.87,0.87 0.479,0 0.87,-0.389 0.87,-0.87 10e-4,-0.48 -0.39,-0.869 -0.87,-0.869 z m -2.047,2.049 c -0.48,0 -0.869,0.389 -0.869,0.869 0,10e-4 0,0.002 0,0.002 0,0 0,0.001 0,0.002 0,0.48 0.389,0.87 0.869,0.87 0.48,0 0.869,-0.389 0.869,-0.87 0,0 0,-10e-4 0,-0.002 0,-10e-4 0,-10e-4 0,-0.002 0,-0.481 -0.389,-0.869 -0.869,-0.869 z M 86.91,16.52 c -0.479,0 -0.869,0.39 -0.869,0.87 0,0.48 0.39,0.869 0.869,0.869 0.48,0 0.869,-0.389 0.869,-0.869 0,-0.481 -0.388,-0.87 -0.869,-0.87 z m 4.098,0 c -0.479,0 -0.869,0.39 -0.869,0.87 0,0.48 0.39,0.869 0.869,0.869 0.48,0 0.87,-0.389 0.87,-0.869 0,-0.481 -0.39,-0.87 -0.87,-0.87 z m -2.047,-2.048 c -0.48,0 -0.87,0.389 -0.87,0.87 0,0.479 0.39,0.869 0.87,0.869 0.479,0 0.869,-0.39 0.869,-0.869 0,-0.481 -0.39,-0.87 -0.869,-0.87 z m 0,4.096 c -0.48,0 -0.87,0.389 -0.87,0.87 0,0.48 0.39,0.869 0.87,0.869 0.479,0 0.869,-0.389 0.869,-0.869 0,-0.481 -0.39,-0.87 -0.869,-0.87 z M 54.158,49.267 c -0.48,0 -0.869,0.389 -0.869,0.869 0,10e-4 0,0.002 0,0.002 0,0 0,0.001 0,0.002 0,0.48 0.389,0.87 0.869,0.87 0.48,0 0.869,-0.389 0.869,-0.87 0,0 0,-10e-4 0,-0.002 0,-10e-4 0,-10e-4 0,-0.002 0,-0.481 -0.388,-0.869 -0.869,-0.869 z M 91.008,20.61 c -0.479,0 -0.869,0.389 -0.869,0.87 0,0.48 0.39,0.87 0.869,0.87 0.48,0 0.87,-0.39 0.87,-0.87 0,-0.48 -0.39,-0.87 -0.87,-0.87 z m 2.049,2.048 c -0.48,0 -0.869,0.39 -0.869,0.87 0,0.48 0.389,0.869 0.869,0.869 0.479,0 0.869,-0.389 0.869,-0.869 0,-0.48 -0.39,-0.87 -0.869,-0.87 z M 66.44,32.881 c -0.479,0 -0.868,0.389 -0.868,0.87 0,0.48 0.389,0.87 0.868,0.87 0.48,0 0.87,-0.39 0.87,-0.87 0.001,-0.48 -0.389,-0.87 -0.87,-0.87 z m 0,4.097 c -0.479,0 -0.868,0.39 -0.868,0.869 0,0.48 0.389,0.87 0.868,0.87 0.48,0 0.87,-0.39 0.87,-0.87 0.001,-0.48 -0.389,-0.869 -0.87,-0.869 z m 0,4.102 c -0.479,0 -0.868,0.389 -0.868,0.869 0,0.481 0.389,0.87 0.868,0.87 0.48,0 0.87,-0.389 0.87,-0.87 0.001,-0.48 -0.389,-0.869 -0.87,-0.869 z m 0,4.09 c -0.479,0 -0.868,0.389 -0.868,0.87 0,0.479 0.389,0.869 0.868,0.869 0.48,0 0.87,-0.39 0.87,-0.869 0.001,-0.48 -0.389,-0.87 -0.87,-0.87 z m 0,4.097 c -0.479,0 -0.868,0.389 -0.868,0.869 0,10e-4 0,0.002 0,0.002 0,0 0,0.001 0,0.002 0,0.48 0.389,0.87 0.868,0.87 0.48,0 0.87,-0.389 0.87,-0.87 0,0 0,-10e-4 0,-0.002 0,-10e-4 0,-10e-4 0,-0.002 0.001,-0.481 -0.389,-0.869 -0.87,-0.869 z M 21.395,61.554 c -0.48,0 -0.869,0.39 -0.869,0.869 0,0.48 0.389,0.87 0.869,0.87 0.48,0 0.87,-0.39 0.87,-0.87 0,-0.48 -0.39,-0.869 -0.87,-0.869 z m 8.196,0 c -0.481,0 -0.869,0.39 -0.869,0.869 0,0.48 0.388,0.87 0.869,0.87 0.48,0 0.869,-0.39 0.869,-0.87 0,-0.48 -0.389,-0.869 -0.869,-0.869 z m 4.089,1.739 c 0.48,0 0.869,-0.39 0.869,-0.87 0,-0.479 -0.389,-0.869 -0.869,-0.869 -0.48,0 -0.87,0.39 -0.87,0.869 0,0.48 0.389,0.87 0.87,0.87 z M 21.395,73.824 c -0.48,0 -0.869,0.389 -0.869,0.869 0,0.48 0.389,0.87 0.869,0.87 0.48,0 0.87,-0.39 0.87,-0.87 0,-0.48 -0.39,-0.869 -0.87,-0.869 z m 0,4.096 c -0.48,0 -0.869,0.39 -0.869,0.869 0,0.48 0.389,0.87 0.869,0.87 0.48,0 0.87,-0.39 0.87,-0.87 0,-0.479 -0.39,-0.869 -0.87,-0.869 z m -2.041,-2.048 c -0.48,0 -0.869,0.39 -0.869,0.869 0,0.48 0.389,0.87 0.869,0.87 0.48,0 0.87,-0.39 0.87,-0.87 0,-0.479 -0.39,-0.869 -0.87,-0.869 z m 0,4.097 c -0.48,0 -0.869,0.389 -0.869,0.869 0,0.479 0.389,0.869 0.869,0.869 0.48,0 0.87,-0.39 0.87,-0.869 0,-0.481 -0.39,-0.869 -0.87,-0.869 z m 4.093,-4.097 c -0.48,0 -0.87,0.39 -0.87,0.869 0,0.48 0.39,0.87 0.87,0.87 0.48,0 0.87,-0.39 0.87,-0.87 0,-0.479 -0.389,-0.869 -0.87,-0.869 z m 0,4.097 c -0.48,0 -0.87,0.389 -0.87,0.869 0,0.479 0.39,0.869 0.87,0.869 0.48,0 0.87,-0.39 0.87,-0.869 0,-0.481 -0.389,-0.869 -0.87,-0.869 z m 6.144,-6.145 c -0.481,0 -0.869,0.389 -0.869,0.869 0,0.48 0.388,0.87 0.869,0.87 0.48,0 0.869,-0.39 0.869,-0.87 0,-0.48 -0.389,-0.869 -0.869,-0.869 z m 4.089,1.739 c 0.48,0 0.869,-0.39 0.869,-0.87 0,-0.48 -0.389,-0.869 -0.869,-0.869 -0.48,0 -0.87,0.389 -0.87,0.869 0,0.48 0.389,0.87 0.87,0.87 z m 0,4.096 c 0.48,0 0.869,-0.39 0.869,-0.87 0,-0.479 -0.389,-0.869 -0.869,-0.869 -0.48,0 -0.87,0.39 -0.87,0.869 0,0.481 0.389,0.87 0.87,0.87 z M 29.591,77.92 c -0.481,0 -0.869,0.39 -0.869,0.869 0,0.48 0.388,0.87 0.869,0.87 0.48,0 0.869,-0.39 0.869,-0.87 0,-0.479 -0.389,-0.869 -0.869,-0.869 z m 2.048,-2.048 c -0.48,0 -0.87,0.39 -0.87,0.869 0,0.48 0.39,0.87 0.87,0.87 0.48,0 0.87,-0.39 0.87,-0.87 0,-0.479 -0.39,-0.869 -0.87,-0.869 z m 0,4.097 c -0.48,0 -0.87,0.389 -0.87,0.869 0,0.479 0.39,0.869 0.87,0.869 0.48,0 0.87,-0.39 0.87,-0.869 0,-0.481 -0.39,-0.869 -0.87,-0.869 z m -10.244,2.042 c -0.48,0 -0.869,0.39 -0.869,0.87 0,0.479 0.389,0.869 0.869,0.869 0.48,0 0.87,-0.39 0.87,-0.869 0,-0.481 -0.39,-0.87 -0.87,-0.87 z m -2.041,2.048 c -0.48,0 -0.869,0.39 -0.869,0.869 0,0.48 0.389,0.87 0.869,0.87 0.48,0 0.87,-0.39 0.87,-0.87 0,-0.48 -0.39,-0.869 -0.87,-0.869 z m 4.093,0 c -0.48,0 -0.87,0.39 -0.87,0.869 0,0.48 0.39,0.87 0.87,0.87 0.48,0 0.87,-0.39 0.87,-0.87 0,-0.48 -0.389,-0.869 -0.87,-0.869 z M 33.68,83.75 c 0.48,0 0.869,-0.39 0.869,-0.869 0,-0.48 -0.389,-0.87 -0.869,-0.87 -0.48,0 -0.87,0.39 -0.87,0.87 0,0.479 0.389,0.869 0.87,0.869 z m -4.089,-1.739 c -0.481,0 -0.869,0.39 -0.869,0.87 0,0.479 0.388,0.869 0.869,0.869 0.48,0 0.869,-0.39 0.869,-0.869 0,-0.481 -0.389,-0.87 -0.869,-0.87 z m 2.048,2.048 c -0.48,0 -0.87,0.39 -0.87,0.869 0,0.48 0.39,0.87 0.87,0.87 0.48,0 0.87,-0.39 0.87,-0.87 0,-0.48 -0.39,-0.869 -0.87,-0.869 z m -10.244,2.048 c -0.48,0 -0.869,0.389 -0.869,0.869 0,0.479 0.389,0.869 0.869,0.869 0.48,0 0.87,-0.39 0.87,-0.869 0,-0.48 -0.39,-0.869 -0.87,-0.869 z m 8.196,0 c -0.481,0 -0.869,0.389 -0.869,0.869 0,0.48 0.388,0.869 0.869,0.869 0.48,0 0.869,-0.389 0.869,-0.869 0,-0.48 -0.389,-0.869 -0.869,-0.869 z m 4.089,1.739 c 0.48,0 0.869,-0.39 0.869,-0.869 0,-0.48 -0.389,-0.869 -0.869,-0.869 -0.48,0 -0.87,0.389 -0.87,0.869 0,0.479 0.389,0.869 0.87,0.869 z m -12.285,2.363 c -0.48,0 -0.869,0.39 -0.869,0.869 0,0.48 0.389,0.87 0.869,0.87 0.48,0 0.87,-0.39 0.87,-0.87 0,-0.479 -0.39,-0.869 -0.87,-0.869 z m -2.041,-2.048 c -0.48,0 -0.869,0.39 -0.869,0.869 0,0.48 0.389,0.87 0.869,0.87 0.48,0 0.87,-0.39 0.87,-0.87 0,-0.479 -0.39,-0.869 -0.87,-0.869 z m 4.093,0 c -0.48,0 -0.87,0.39 -0.87,0.869 0,0.48 0.39,0.87 0.87,0.87 0.48,0 0.87,-0.39 0.87,-0.87 0,-0.479 -0.389,-0.869 -0.87,-0.869 z m 6.144,2.048 c -0.481,0 -0.869,0.39 -0.869,0.869 0,0.48 0.388,0.87 0.869,0.87 0.48,0 0.869,-0.39 0.869,-0.87 0,-0.479 -0.389,-0.869 -0.869,-0.869 z m 2.048,-2.048 c -0.48,0 -0.87,0.39 -0.87,0.869 0,0.48 0.39,0.87 0.87,0.87 0.48,0 0.87,-0.39 0.87,-0.87 0,-0.479 -0.39,-0.869 -0.87,-0.869 z M 21.395,65.649 c -0.48,0 -0.869,0.39 -0.869,0.869 0,0.48 0.389,0.87 0.869,0.87 0.48,0 0.87,-0.39 0.87,-0.87 0,-0.479 -0.39,-0.869 -0.87,-0.869 z m -2.041,-2.047 c -0.48,0 -0.869,0.389 -0.869,0.869 0,0.48 0.389,0.87 0.869,0.87 0.48,0 0.87,-0.39 0.87,-0.87 0,-0.48 -0.39,-0.869 -0.87,-0.869 z m 0,4.095 c -0.48,0 -0.869,0.39 -0.869,0.869 0,0.48 0.389,0.87 0.869,0.87 0.48,0 0.87,-0.39 0.87,-0.87 0,-0.479 -0.39,-0.869 -0.87,-0.869 z m 4.093,-4.095 c -0.48,0 -0.87,0.389 -0.87,0.869 0,0.48 0.39,0.87 0.87,0.87 0.48,0 0.87,-0.39 0.87,-0.87 0,-0.48 -0.389,-0.869 -0.87,-0.869 z m 0,4.095 c -0.48,0 -0.87,0.39 -0.87,0.869 0,0.48 0.39,0.87 0.87,0.87 0.48,0 0.87,-0.39 0.87,-0.87 0,-0.479 -0.389,-0.869 -0.87,-0.869 z M 33.68,67.389 c 0.48,0 0.869,-0.39 0.869,-0.87 0,-0.479 -0.389,-0.869 -0.869,-0.869 -0.48,0 -0.87,0.39 -0.87,0.869 0,0.48 0.389,0.87 0.87,0.87 z m -4.089,-1.74 c -0.481,0 -0.869,0.39 -0.869,0.869 0,0.48 0.388,0.87 0.869,0.87 0.48,0 0.869,-0.39 0.869,-0.87 0,-0.479 -0.389,-0.869 -0.869,-0.869 z m 2.048,-2.047 c -0.48,0 -0.87,0.389 -0.87,0.869 0,0.48 0.39,0.87 0.87,0.87 0.48,0 0.87,-0.39 0.87,-0.87 0,-0.48 -0.39,-0.869 -0.87,-0.869 z m 0,4.095 c -0.48,0 -0.87,0.39 -0.87,0.869 0,0.48 0.39,0.87 0.87,0.87 0.48,0 0.87,-0.39 0.87,-0.87 0,-0.479 -0.39,-0.869 -0.87,-0.869 z M 21.395,69.74 c -0.48,0 -0.869,0.389 -0.869,0.869 0,0.48 0.389,0.869 0.869,0.869 0.48,0 0.87,-0.389 0.87,-0.869 0,-0.48 -0.39,-0.869 -0.87,-0.869 z m -2.041,2.048 c -0.48,0 -0.869,0.39 -0.869,0.869 0,0.48 0.389,0.87 0.869,0.87 0.48,0 0.87,-0.39 0.87,-0.87 0,-0.479 -0.39,-0.869 -0.87,-0.869 z m 4.093,0 c -0.48,0 -0.87,0.39 -0.87,0.869 0,0.48 0.39,0.87 0.87,0.87 0.48,0 0.87,-0.39 0.87,-0.87 0,-0.479 -0.389,-0.869 -0.87,-0.869 z M 33.68,71.479 c 0.48,0 0.869,-0.389 0.869,-0.869 0,-0.48 -0.389,-0.87 -0.869,-0.87 -0.48,0 -0.87,0.389 -0.87,0.869 0,0.48 0.389,0.87 0.87,0.87 z M 29.591,69.74 c -0.481,0 -0.869,0.389 -0.869,0.869 0,0.48 0.388,0.869 0.869,0.869 0.48,0 0.869,-0.389 0.869,-0.869 0,-0.48 -0.389,-0.869 -0.869,-0.869 z m 2.048,2.048 c -0.48,0 -0.87,0.39 -0.87,0.869 0,0.48 0.39,0.87 0.87,0.87 0.48,0 0.87,-0.39 0.87,-0.87 0,-0.479 -0.39,-0.869 -0.87,-0.869 z m 24.568,-20.47 c -0.479,0 -0.869,0.39 -0.869,0.87 0,0.479 0.39,0.869 0.869,0.869 0.48,0 0.87,-0.39 0.87,-0.869 0,-0.48 -0.389,-0.87 -0.87,-0.87 z m 0,4.097 c -0.479,0 -0.869,0.389 -0.869,0.869 0,0.48 0.39,0.869 0.869,0.869 0.48,0 0.87,-0.389 0.87,-0.869 0,-0.48 -0.389,-0.869 -0.87,-0.869 z m 12.283,0 c -0.48,0 -0.869,0.389 -0.869,0.869 0,0.48 0.389,0.869 0.869,0.869 0.48,0 0.869,-0.389 0.869,-0.869 0,-0.48 -0.388,-0.869 -0.869,-0.869 z m 10.237,-2.049 c -0.48,0 -0.869,0.39 -0.869,0.87 0,0.48 0.389,0.869 0.869,0.869 0.48,0 0.869,-0.389 0.869,-0.869 0,-0.48 -0.389,-0.87 -0.869,-0.87 z m 2.047,-2.048 c -0.48,0 -0.87,0.39 -0.87,0.87 0,0.479 0.39,0.869 0.87,0.869 0.479,0 0.87,-0.39 0.87,-0.869 10e-4,-0.48 -0.39,-0.87 -0.87,-0.87 z m -4.096,4.097 c -0.48,0 -0.868,0.389 -0.868,0.869 0,0.48 0.388,0.869 0.868,0.869 0.48,0 0.87,-0.389 0.87,-0.869 0,-0.48 -0.39,-0.869 -0.87,-0.869 z m 4.096,0 c -0.48,0 -0.87,0.389 -0.87,0.869 0,0.48 0.39,0.869 0.87,0.869 0.479,0 0.87,-0.389 0.87,-0.869 0,-0.48 -0.39,-0.869 -0.87,-0.869 z m -24.567,4.091 c -0.479,0 -0.869,0.389 -0.869,0.869 0,0.479 0.39,0.869 0.869,0.869 0.48,0 0.87,-0.39 0.87,-0.869 0,-0.48 -0.389,-0.869 -0.87,-0.869 z m -2.049,-6.139 c -0.48,0 -0.869,0.389 -0.869,0.869 0,0.48 0.389,0.869 0.869,0.869 0.48,0 0.869,-0.389 0.869,-0.869 0,-0.48 -0.388,-0.869 -0.869,-0.869 z m 0,4.09 c -0.48,0 -0.869,0.39 -0.869,0.87 0,0.479 0.389,0.869 0.869,0.869 0.48,0 0.869,-0.39 0.869,-0.869 0,-0.48 -0.388,-0.87 -0.869,-0.87 z m 12.282,-4.09 c -0.479,0 -0.868,0.389 -0.868,0.869 0,0.48 0.389,0.869 0.868,0.869 0.48,0 0.87,-0.389 0.87,-0.869 0,-0.48 -0.389,-0.869 -0.87,-0.869 z"
           inkscape:connector-curvature="0" />
      </g>
    </g>
    <g
       id="g4249"
       transform="matrix(0.74198255,0,0,0.66259811,91.296038,897.87627)">
      <g
         id="g4235"
         transform="translate(0,-952.36218)">
        <path
           id="path4237"
           transform="translate(0,952.36218)"
           d="M 28,11 C 17.63451,11 4,20.12267 4,38.53125 c 0,8.33101 4.4176245,16.2848 10.78125,23.5625 6.363626,7.2776 14.762564,13.933 23.15625,19.625 a 2.0022374,2.0022374 0 0 0 2.25,-3.3125 C 31.97176,72.83495 23.823427,66.34295 17.8125,59.46875 11.801573,52.59445 8,45.42181 8,38.53125 8,22.08269 19.985694,15 28,15 c 10.795457,0 16.656356,5.07499 20.28125,11.03125 a 2.0002,2.0002 0 0 0 3.4375,0 C 55.343644,20.07499 61.204543,15 72,15 80.014306,15 92,22.08269 92,38.53125 92,46.957 86.262536,55.826 77.875,64 69.76894,71.8997 59.346178,79.0141 49.96875,84.625 c -0.658033,-0.394 -1.332763,-0.7784 -2,-1.1875 A 2.0002,2.0002 0 1 0 45.875,86.84375 c 1.044254,0.6402 2.074026,1.2718 3.09375,1.875 a 2.0002,2.0002 0 0 0 2.0625,0 c 9.789715,-5.791 20.896727,-13.3385 29.65625,-21.875 C 89.447023,58.30715 96,48.7184 96,38.53125 96,20.12267 82.36549,11 72,11 61.288566,11 54.355915,15.8639 50,21.6875 45.644085,15.8639 38.711434,11 28,11 Z M 14.8125,31.96875 a 2.0002,2.0002 0 0 0 -1.78125,1.59375 c -1.688937,7.83807 2.889726,15.48355 7.25,19.84375 a 2.0002,2.0002 0 1 0 2.8125,-2.84375 c -3.639726,-3.63973 -7.363113,-10.41038 -6.125,-16.15625 a 2.0002,2.0002 0 0 0 -2.15625,-2.4375 z"
           style="color:#000000;font-style:normal;font-variant:normal;font-weight:normal;font-stretch:normal;font-size:medium;line-height:normal;font-family:Sans;-inkscape-font-specification:Sans;text-indent:0;text-align:start;text-decoration:none;text-decoration-line:none;letter-spacing:normal;word-spacing:normal;text-transform:none;direction:ltr;block-progression:tb;writing-mode:lr-tb;baseline-shift:baseline;text-anchor:start;display:inline;overflow:visible;visibility:visible;opacity:1;fill:#000000;fill-opacity:1;stroke:none;stroke-width:4;marker:none;enable-background:accumulate"
           inkscape:connector-curvature="0" />
      </g>
    </g>
  </g>
  <g
     inkscape:groupmode="layer"
     id="layer3"
     inkscape:label="Layout"
     style="display:none">
    <path
       style="fill:#ff0000;fill-rule:evenodd;stroke:#ff0000;stroke-width:0.17716534;stroke-linecap:butt;stroke-linejoin:miter;stroke-miterlimit:4;stroke-dasharray:none;stroke-opacity:1"
       d="m 128.23228,772.44094 0,304.72446"
       id="path4143"
       inkscape:connector-curvature="0" />
    <path
       style="fill:#ff0000;fill-rule:evenodd;stroke:#ff0000;stroke-width:0.17716534;stroke-linecap:butt;stroke-linejoin:miter;stroke-miterlimit:4;stroke-dasharray:none;stroke-opacity:1"
       d="m 7.9015748,771.62494 0,304.72446"
       id="path4143-1"
       inkscape:connector-curvature="0" />
    <path
       style="fill:#ff0000;fill-rule:evenodd;stroke:#ff0000;stroke-width:0.17716534;stroke-linecap:butt;stroke-linejoin:miter;stroke-miterlimit:4;stroke-dasharray:none;stroke-opacity:1"
       d="m 248.56299,769.0607 0,304.7245"
       id="path4143-10"
       inkscape:connector-curvature="0" />
    <path
       style="fill:#ff0000;fill-rule:evenodd;stroke:#ff0000;stroke-width:0.17716534;stroke-linecap:butt;stroke-linejoin:miter;stroke-miterlimit:4;stroke-dasharray:none;stroke-opacity:1"
       d="m -14.45558,924.12992 304.72446,0"
       id="path4143-6-5"
       inkscape:connector-curvature="0" />
    <path
       style="fill:#ff0000;fill-rule:evenodd;stroke:#ff0000;stroke-width:0.17716534;stroke-linecap:butt;stroke-linejoin:miter;stroke-miterlimit:4;stroke-dasharray:none;stroke-opacity:1"
       d="m -15.931949,803.79921 304.724459,0"
       id="path4143-6-7"
       inkscape:connector-curvature="0" />
    <circle
       style="opacity:1;fill:#ff00ff;fill-opacity:1;fill-rule:evenodd;stroke:#ff0000;stroke-width:0.354;stroke-linejoin:miter;stroke-miterlimit:4;stroke-dasharray:none;stroke-opacity:1"
       id="path4139-8-1"
       cx="7.9038372"
       cy="803.81299"
       r="3.366307" />
    <circle
       style="opacity:1;fill:#ff00ff;fill-opacity:1;fill-rule:evenodd;stroke:#ff0000;stroke-width:0.354;stroke-linejoin:miter;stroke-miterlimit:4;stroke-dasharray:none;stroke-opacity:1"
       id="path4139"
       cx="128.14371"
       cy="803.88782"
       r="3.366307" />
    <circle
       style="opacity:1;fill:#ff00ff;fill-opacity:1;fill-rule:evenodd;stroke:#ff0000;stroke-width:0.354;stroke-linejoin:miter;stroke-miterlimit:4;stroke-dasharray:none;stroke-opacity:1"
       id="path4139-8-6"
       cx="248.54024"
       cy="803.78259"
       r="3.366307" />
    <circle
       style="opacity:1;fill:#ff00ff;fill-opacity:1;fill-rule:evenodd;stroke:#ff0000;stroke-width:0.354;stroke-linejoin:miter;stroke-miterlimit:4;stroke-dasharray:none;stroke-opacity:1"
       id="path4139-8-9"
       cx="7.8805795"
       cy="1044.4703"
       r="3.366307" />
    <circle
       style="opacity:1;fill:#ff00ff;fill-opacity:1;fill-rule:evenodd;stroke:#ff0000;stroke-width:0.354;stroke-linejoin:miter;stroke-miterlimit:4;stroke-dasharray:none;stroke-opacity:1"
       id="path4139-8"
       cx="128.21964"
       cy="1044.4685"
       r="3.366307" />
    <circle
       style="opacity:1;fill:#ff00ff;fill-opacity:1;fill-rule:evenodd;stroke:#ff0000;stroke-width:0.354;stroke-linejoin:miter;stroke-miterlimit:4;stroke-dasharray:none;stroke-opacity:1"
       id="path4139-8-3"
       cx="248.55234"
       cy="1044.4526"
       r="3.366307" />
    <path
       style="display:inline;fill:#ff0000;fill-rule:evenodd;stroke:#ff0000;stroke-width:0.17716534;stroke-linecap:butt;stroke-linejoin:miter;stroke-miterlimit:4;stroke-dasharray:none;stroke-opacity:1"
       d="m -16.782774,1044.6017 304.724454,0"
       id="path4143-6-5-4"
       inkscape:connector-curvature="0" />
    <text
       xml:space="preserve"
       style="font-style:normal;font-weight:normal;font-size:22.5px;line-height:125%;font-family:Sans;letter-spacing:0px;word-spacing:0px;fill:#000000;fill-opacity:1;stroke:none;stroke-width:1px;stroke-linecap:butt;stroke-linejoin:miter;stroke-opacity:1"
       x="-354.33072"
       y="946.06299"
       id="text4754"
       sodipodi:linespacing="125%"><tspan
         sodipodi:role="line"
         id="tspan4756"
         x="-354.33072"
         y="946.06299">Offset:</tspan><tspan
         sodipodi:role="line"
         x="-354.33072"
         y="974.18799"
         id="tspan4758">x: 2.224</tspan><tspan
         sodipodi:role="line"
         x="-354.33072"
         y="1002.313"
         id="tspan4760">y: 2.227</tspan><tspan
         sodipodi:role="line"
         x="-354.33072"
         y="1030.438"
         id="tspan4762" /></text>
    <path
       style="display:inline;fill:#ff0000;fill-rule:evenodd;stroke:#ff0000;stroke-width:0.17716534;stroke-linecap:butt;stroke-linejoin:miter;stroke-miterlimit:4;stroke-dasharray:none;stroke-opacity:1"
       d="m -8.6675494,1010.4148 304.7244594,0"
       id="path4143-6-5-45"
       inkscape:connector-curvature="0" />
  </g>
  <g
     inkscape:groupmode="layer"
     id="layer4"
     inkscape:label="Cut"
     style="display:none">
    <rect
       style="display:inline;opacity:1;fill:#0000ff;fill-opacity:1;fill-rule:evenodd;stroke:#0000ff;stroke-width:0.17716534;stroke-linejoin:miter;stroke-miterlimit:4;stroke-dasharray:none;stroke-opacity:1"
       id="rect4764"
       width="8.8582678"
       height="9.9212599"
       x="81.315353"
       y="1006.4693"
       ry="3.5433071"
       rx="3.5433071" />
    <circle
       style="display:inline;opacity:1;fill:#0000ff;fill-opacity:1;fill-rule:evenodd;stroke:#0000ff;stroke-width:0.17716533;stroke-linejoin:miter;stroke-miterlimit:4;stroke-dasharray:none;stroke-opacity:1"
       id="path4766"
       cx="160.04823"
       cy="1010.2955"
       r="4.4297247" />
    <circle
       style="display:inline;opacity:1;fill:#0000ff;fill-opacity:1;fill-rule:evenodd;stroke:#0000ff;stroke-width:0.17716533;stroke-linejoin:miter;stroke-miterlimit:4;stroke-dasharray:none;stroke-opacity:1"
       id="path4766-9"
       cx="58.355316"
       cy="836.49628"
       r="4.4297247" />
    <rect
       style="display:inline;opacity:1;fill:none;fill-opacity:1;fill-rule:evenodd;stroke:#0000ff;stroke-width:0.354;stroke-linejoin:miter;stroke-miterlimit:4;stroke-dasharray:none;stroke-opacity:1"
       id="rect4136-8"
       width="256.28741"
       height="256.28741"
       x="0.177"
       y="795.89777"
       rx="14.1732"
       ry="14.1732" />
  </g>
</svg>
